# xmcd
#
# Track frame offsets:
#	150
#	14524
#	30255
#	44925
#	59685
#	83014
#	97727
#	113569
#	127426
#	140746
#	155678
#	170515
#	186250
#	197480
#	208367
#	218624
#	230865
#	248033
#	261672
#	275245
#
# Disc length: 3896 seconds
#
# Revision: 0
# Processed by: cddbd v1.5.2PL0 Copyright (c) Steve Scherf et al.
# Submitted via: EasyCDDAExtractor 16.0.6.1
#
DISCID=3d0f3614
DTITLE=Various Artist - Jazz For Lovers
DYEAR=1900
DGENRE=
TTITLE0=Nat King Cole - Unforgettable
TTITLE1=Rita Reys - Over The Rainbow
TTITLE2=Ella Fitzgerald - How About Me
TTITLE3=Nat King Cole - Mona Lisa
TTITLE4=Nina Simone - Ne Me Quitte Pas
TTITLE5=Nat King Cole - Stardust
TTITLE6=Carmen Mc Rea - Underneath The Apple Tree
TTITLE7=Ella Fitzgerald - If You Ever Change Your Mind
TTITLE8=Teresa Brewer - How Important Can It Be
TTITLE9=Peggy Lee - Mr Wonderfull
TTITLE10=Frank Sinatra - Come Fly With Me
TTITLE11=Sammy David JR - When I Fall In Love
TTITLE12=Cleo Laine - April In Paris
TTITLE13=Louis Armstrong - Hello Dolly
TTITLE14=Dean Martin - Memories Are Made Of This
TTITLE15=Ray Charles - Honey Honey
TTITLE16=Cleo Laine - Unforgettable
TTITLE17=Dizzy Gillespie - Soul Times
TTITLE18=Benny Goodman - Jersey Bounce
TTITLE19=Duke Ellington - Creole Love Call
EXTD=
EXTT0=
EXTT1=
EXTT2=
EXTT3=
EXTT4=
EXTT5=
EXTT6=
EXTT7=
EXTT8=
EXTT9=
EXTT10=
EXTT11=
EXTT12=
EXTT13=
EXTT14=
EXTT15=
EXTT16=
EXTT17=
EXTT18=
EXTT19=
PLAYORDER=
